<?xml version="1.0" encoding="UTF-8" standalone="no"?>
<svg
   xmlns:dc="http://purl.org/dc/elements/1.1/"
   xmlns:cc="http://creativecommons.org/ns#"
   xmlns:rdf="http://www.w3.org/1999/02/22-rdf-syntax-ns#"
   xmlns:svg="http://www.w3.org/2000/svg"
   xmlns="http://www.w3.org/2000/svg"
   xmlns:sodipodi="http://sodipodi.sourceforge.net/DTD/sodipodi-0.dtd"
   xmlns:inkscape="http://www.inkscape.org/namespaces/inkscape"
   width="79.375mm"
   height="42.333332mm"
   viewBox="0 0 79.375 42.333332"
   version="1.1"
   id="svg8"
   inkscape:version="1.0.1 (3bc2e813f5, 2020-09-07)"
   sodipodi:docname="euphoria-logo.svg"
   inkscape:export-filename="/home/gustav/dev/euphoria/data/branding/euphoria-logo-1280.png"
   inkscape:export-xdpi="409.60001"
   inkscape:export-ydpi="409.60001">
  <defs
     id="defs2" />
  <sodipodi:namedview
     id="base"
     pagecolor="#ffffff"
     bordercolor="#666666"
     borderopacity="1.0"
     inkscape:pageopacity="0.0"
     inkscape:pageshadow="2"
     inkscape:zoom="1.4142136"
     inkscape:cx="168.57609"
     inkscape:cy="79.392823"
     inkscape:document-units="px"
     inkscape:current-layer="layer1"
     inkscape:document-rotation="0"
     showgrid="true"
     inkscape:snap-smooth-nodes="false"
     inkscape:window-width="995"
     inkscape:window-height="1135"
     inkscape:window-x="901"
     inkscape:window-y="574"
     inkscape:window-maximized="0"
     inkscape:object-paths="false"
     inkscape:snap-intersection-paths="false"
     showguides="true"
     inkscape:object-nodes="false"
     inkscape:snap-others="true"
     inkscape:snap-nodes="false"
     inkscape:snap-bbox="true"
     inkscape:bbox-paths="true"
     inkscape:bbox-nodes="true"
     inkscape:snap-bbox-edge-midpoints="true"
     inkscape:snap-bbox-midpoints="true"
     inkscape:snap-page="true"
     inkscape:snap-to-guides="true"
     inkscape:pagecheckerboard="true"
     objecttolerance="20">
    <inkscape:grid
       type="xygrid"
       id="grid874"
       dotted="false"
       empspacing="10"
       color="#8685ff"
       opacity="0.1254902"
       visible="true"
       enabled="true"
       originx="0"
       originy="-0.17651989" />
  </sodipodi:namedview>
  <metadata
     id="metadata5">
    <rdf:RDF>
      <cc:Work
         rdf:about="">
        <dc:format>image/svg+xml</dc:format>
        <dc:type
           rdf:resource="http://purl.org/dc/dcmitype/StillImage" />
        <dc:title></dc:title>
      </cc:Work>
    </rdf:RDF>
  </metadata>
  <g
     inkscape:label="Layer 1"
     inkscape:groupmode="layer"
     id="layer1"
     transform="translate(0,-0.1765199)">
    <rect
       style="fill:#ffffff;stroke-width:5.4388"
       id="rect880"
       width="79.375"
       height="42.333332"
       x="0"
       y="0.1765199" />
    <g
       id="g906"
       transform="translate(0.8492247)">
      <path
         style="fill:#000000;fill-opacity:1;stroke:#000000;stroke-width:0.264583px;stroke-linecap:butt;stroke-linejoin:miter;stroke-opacity:1"
         d="m 1.4491751,30.501449 74.3019299,0.0885 c 0,-19.86392 -13.84874,-19.600014 -17.48046,-10.84465 0,-21.4822597 -38.166422,-24.7510957 -38.166422,-1.05957 C 18.573384,12.972564 1.4491751,4.1494023 1.4491751,30.501489 Z"
         id="path833"
         sodipodi:nodetypes="cccccc" />
      <text
         xml:space="preserve"
         style="font-style:normal;font-weight:normal;font-size:52.6242px;line-height:1.25;font-family:sans-serif;fill:#ffffff;fill-opacity:1;stroke:none;stroke-width:5.29167;stroke-miterlimit:4;stroke-dasharray:none"
         x="9.8586245"
         y="50.725651"
         id="text837"
         transform="rotate(-25.90831)"><tspan
           id="tspan835"
           x="9.8586245"
           y="50.725651"
           style="font-style:normal;font-variant:normal;font-weight:bold;font-stretch:normal;font-size:52.6242px;font-family:'Fira Code';-inkscape-font-specification:'Fira Code, Bold';font-variant-ligatures:normal;font-variant-caps:normal;font-variant-numeric:normal;font-variant-east-asian:normal;fill:#ffffff;fill-opacity:1;stroke-width:5.29167;stroke-miterlimit:4;stroke-dasharray:none"
           sodipodi:role="line">e</tspan></text>
      <rect
         style="fill:#ffffff;fill-opacity:1;stroke-width:5.81194;stroke-miterlimit:4;stroke-dasharray:none"
         id="rect842"
         width="13.325134"
         height="10.058676"
         x="31.675318"
         y="11.253292" />
      <path
         sodipodi:type="star"
         style="fill:#000000;fill-opacity:1;stroke-width:8.7014;stroke-miterlimit:4;stroke-dasharray:none"
         id="path846"
         sodipodi:sides="3"
         sodipodi:cx="107.33013"
         sodipodi:cy="99.777328"
         sodipodi:r1="5.6678896"
         sodipodi:r2="2.8339448"
         sodipodi:arg1="0"
         sodipodi:arg2="1.0471976"
         inkscape:flatsided="true"
         inkscape:rounded="0"
         inkscape:randomized="0"
         d="m 112.99802,99.777328 -8.50183,4.908532 v -9.817068 z"
         inkscape:transform-center-x="-1.3548375"
         transform="matrix(0.95615438,0,0,0.85520063,-65.57007,-69.443738)"
         inkscape:transform-center-y="-2.5317878e-06" />
      <g
         id="g919"
         transform="translate(-70.080305,-83.725651)">
        <rect
           style="fill:#ffffff;fill-opacity:1;stroke-width:4.01867;stroke-miterlimit:4;stroke-dasharray:none"
           id="rect871"
           width="1.4557236"
           height="8.2227211"
           x="80.763931"
           y="100.37841" />
        <rect
           style="fill:#ffffff;fill-opacity:1;stroke-width:4.01867;stroke-miterlimit:4;stroke-dasharray:none"
           id="rect871-6"
           width="1.4557236"
           height="8.2227221"
           x="104.02777"
           y="-85.804832"
           transform="rotate(90)" />
      </g>
      <g
         id="g925"
         transform="translate(-70.306381,-85.30934)">
        <circle
           style="fill:#ffffff;fill-opacity:1;stroke-width:5.29167;stroke-miterlimit:4;stroke-dasharray:none"
           id="path888"
           cx="135.20015"
           cy="106.30367"
           r="1.4330198" />
        <circle
           style="fill:#ffffff;fill-opacity:1;stroke-width:5.29167;stroke-miterlimit:4;stroke-dasharray:none"
           id="path888-1"
           cx="139.93661"
           cy="106.19667"
           r="1.4330198" />
        <circle
           style="fill:#ffffff;fill-opacity:1;stroke-width:5.29167;stroke-miterlimit:4;stroke-dasharray:none"
           id="path888-15"
           cx="135.31065"
           cy="110.78712"
           r="1.4330198" />
        <circle
           style="fill:#ffffff;fill-opacity:1;stroke-width:5.29167;stroke-miterlimit:4;stroke-dasharray:none"
           id="path888-9"
           cx="139.84659"
           cy="110.75742"
           r="1.4330198" />
      </g>
      <g
         id="g963">
        <path
           d="m 2.1781514,35.248632 q 0.010855,0.689271 0.2496573,1.156022 0.2388027,0.461323 0.6295707,0.689271 0.3961953,0.222521 0.8792279,0.222521 0.4341867,0 0.781536,-0.124829 0.3527767,-0.124828 0.7543993,-0.401622 l 0.3527767,0.504742 q -0.390768,0.30393 -0.8900827,0.472178 -0.4938873,0.168247 -0.9714926,0.168247 -0.7761086,0 -1.3459786,-0.363631 -0.5644427,-0.369059 -0.862946,-1.036621 -0.2985033,-0.667562 -0.2985033,-1.552217 0,-0.862946 0.2985033,-1.530508 0.3039307,-0.67299 0.8520913,-1.047476 0.5481607,-0.379913 1.253714,-0.379913 0.6838439,0 1.1831586,0.336495 0.4993146,0.331067 0.7598266,0.95521 0.2659394,0.618716 0.2659394,1.46538 0,0.124829 -0.016282,0.466751 z m 1.6987553,-2.594265 q -0.472178,0 -0.8412367,0.22252 -0.3636313,0.217094 -0.586152,0.662135 -0.2225206,0.445041 -0.2605119,1.101749 H 5.4291239 Q 5.4074146,33.663851 4.98951,33.159109 4.5716053,32.654367 3.8769067,32.654367 Z"
           style="font-style:normal;font-variant:normal;font-weight:300;font-stretch:normal;font-size:10.5833px;line-height:1.25;font-family:'Fira Code';-inkscape-font-specification:'Fira Code, Light';font-variant-ligatures:normal;font-variant-caps:normal;font-variant-numeric:normal;font-variant-east-asian:normal;fill:#000000;fill-opacity:1;stroke:none;stroke-width:0.264583"
           id="path930" />
        <path
           d="m 12.648355,36.203843 q 0,0.607861 0.255085,0.890082 0.260512,0.276794 0.819528,0.276794 0.504742,0 0.97692,-0.287648 0.477605,-0.293076 0.738117,-0.705554 v -4.249602 h 0.672989 v 5.6987 h -0.564442 l -0.07598,-0.797818 q -0.341922,0.42876 -0.841237,0.667562 -0.499314,0.238803 -1.004056,0.238803 -0.814101,0 -1.232005,-0.423332 -0.417905,-0.428759 -0.417905,-1.226577 v -4.157338 h 0.672989 z"
           style="font-style:normal;font-variant:normal;font-weight:300;font-stretch:normal;font-size:10.5833px;line-height:1.25;font-family:'Fira Code';-inkscape-font-specification:'Fira Code, Light';font-variant-ligatures:normal;font-variant-caps:normal;font-variant-numeric:normal;font-variant-east-asian:normal;fill:#000000;fill-opacity:1;stroke:none;stroke-width:0.264583"
           id="path932" />
        <path
           d="m 24.095478,32.024796 q 1.096321,0 1.573927,0.770681 0.483032,0.770682 0.483032,2.181788 0,0.879228 -0.238802,1.54679 -0.238803,0.662135 -0.73269,1.036621 -0.493888,0.374486 -1.226578,0.374486 -0.971492,0 -1.552217,-0.678417 v 2.746231 l -0.672989,0.09227 V 32.12792 h 0.553588 l 0.07598,0.841237 q 0.314785,-0.445041 0.754399,-0.694699 0.445041,-0.249657 0.982347,-0.249657 z m -0.119401,0.575297 q -0.483033,0 -0.884656,0.287649 -0.401622,0.282221 -0.689271,0.705553 v 2.95247 q 0.238803,0.358204 0.618716,0.56987 0.385341,0.206238 0.824955,0.206238 0.79239,0 1.177731,-0.580724 0.390768,-0.586152 0.390768,-1.774738 0,-2.366318 -1.438243,-2.366318 z"
           style="font-style:normal;font-variant:normal;font-weight:300;font-stretch:normal;font-size:10.5833px;line-height:1.25;font-family:'Fira Code';-inkscape-font-specification:'Fira Code, Light';font-variant-ligatures:normal;font-variant-caps:normal;font-variant-numeric:normal;font-variant-east-asian:normal;fill:#000000;fill-opacity:1;stroke:none;stroke-width:0.264583"
           id="path934" />
        <path
           d="m 32.714963,32.969152 q 0.320213,-0.450469 0.824955,-0.694699 0.504742,-0.249657 1.03662,-0.249657 1.617346,0 1.617346,1.677046 v 4.124773 h -0.67299 v -4.244174 q 0,-0.51017 -0.276794,-0.7544 -0.276794,-0.24423 -0.841236,-0.24423 -0.34735,0 -0.678417,0.157393 -0.331067,0.151965 -0.591579,0.390768 -0.260512,0.233375 -0.417905,0.477605 v 4.217038 h -0.672989 v -7.989034 l 0.672989,-0.08141 z"
           style="font-style:normal;font-variant:normal;font-weight:300;font-stretch:normal;font-size:10.5833px;line-height:1.25;font-family:'Fira Code';-inkscape-font-specification:'Fira Code, Light';font-variant-ligatures:normal;font-variant-caps:normal;font-variant-numeric:normal;font-variant-east-asian:normal;fill:#000000;fill-opacity:1;stroke:none;stroke-width:0.264583"
           id="path936" />
        <path
           d="m 43.896149,32.024796 q 0.765254,0 1.291705,0.358204 0.526451,0.358204 0.786963,1.020339 0.260512,0.662134 0.260512,1.573926 0,0.857519 -0.271366,1.530508 -0.26594,0.667562 -0.797818,1.047476 -0.531879,0.379913 -1.286278,0.379913 -0.765254,0 -1.297133,-0.363631 -0.526451,-0.369059 -0.792391,-1.031194 -0.265939,-0.662134 -0.265939,-1.552217 0,-0.884655 0.265939,-1.552217 0.271367,-0.667562 0.803246,-1.036621 0.537306,-0.374486 1.30256,-0.374486 z m 0,0.591579 q -1.633628,0 -1.633628,2.371745 0,2.350035 1.617346,2.350035 1.617345,0 1.617345,-2.36089 0,-2.36089 -1.601063,-2.36089 z"
           style="font-style:normal;font-variant:normal;font-weight:300;font-stretch:normal;font-size:10.5833px;line-height:1.25;font-family:'Fira Code';-inkscape-font-specification:'Fira Code, Light';font-variant-ligatures:normal;font-variant-caps:normal;font-variant-numeric:normal;font-variant-east-asian:normal;fill:#000000;fill-opacity:1;stroke:none;stroke-width:0.264583"
           id="path938" />
        <path
           d="m 55.506093,32.013941 q 0.200811,0 0.363631,0.02714 0.168247,0.02714 0.40705,0.08684 l -0.07598,1.79102 h -0.65128 v -1.112603 l 0.01085,-0.141111 q -0.04342,-0.0054 -0.135683,-0.0054 -0.694699,0 -1.177732,0.477605 -0.477605,0.472178 -0.781536,1.476235 v 2.648539 h 1.172304 v 0.564442 H 51.86435 v -0.564442 h 0.928074 V 32.697818 H 51.86435 v -0.56987 h 1.443671 l 0.124828,1.367688 q 0.358204,-0.743544 0.83581,-1.112603 0.477605,-0.369059 1.237432,-0.369059 z"
           style="font-style:normal;font-variant:normal;font-weight:300;font-stretch:normal;font-size:10.5833px;line-height:1.25;font-family:'Fira Code';-inkscape-font-specification:'Fira Code, Light';font-variant-ligatures:normal;font-variant-caps:normal;font-variant-numeric:normal;font-variant-east-asian:normal;fill:#000000;fill-opacity:1;stroke:none;stroke-width:0.264583"
           id="path940" />
        <path
           d="m 64.027878,29.549932 q 0.255085,0 0.40705,0.157393 0.157393,0.151965 0.157393,0.379913 0,0.24423 -0.157393,0.401623 -0.151965,0.157392 -0.40705,0.157392 -0.24423,0 -0.396195,-0.157392 -0.151966,-0.157393 -0.151966,-0.401623 0,-0.227948 0.151966,-0.379913 0.157392,-0.157393 0.396195,-0.157393 z m -1.785593,2.577983 h 2.420591 v 5.112548 h 1.655337 v 0.586152 h -4.130201 v -0.586152 h 1.801875 v -4.526396 h -1.747602 z"
           style="font-style:normal;font-variant:normal;font-weight:300;font-stretch:normal;font-size:10.5833px;line-height:1.25;font-family:'Fira Code';-inkscape-font-specification:'Fira Code, Light';font-variant-ligatures:normal;font-variant-caps:normal;font-variant-numeric:normal;font-variant-east-asian:normal;fill:#000000;fill-opacity:1;stroke:none;stroke-width:0.264583"
           id="path942" />
        <path
           d="m 75.871207,36.703157 q 0,0.336495 0.113974,0.504742 0.113974,0.16282 0.374486,0.238803 l -0.184529,0.493887 q -0.347349,-0.05427 -0.597007,-0.249657 -0.24423,-0.200811 -0.341922,-0.56987 -0.298503,0.396195 -0.748972,0.607861 -0.445041,0.206239 -1.009484,0.206239 -0.559015,0 -0.971492,-0.211666 -0.40705,-0.217093 -0.624144,-0.613289 -0.217093,-0.396195 -0.217093,-0.928074 0,-0.868373 0.678417,-1.329696 0.678416,-0.461324 1.964694,-0.461324 h 0.862946 v -0.553588 q 0,-0.640425 -0.369058,-0.922646 -0.363632,-0.282222 -1.05833,-0.282222 -0.656708,0 -1.459953,0.287649 l -0.195384,-0.553588 q 0.493887,-0.184529 0.917219,-0.260512 0.423332,-0.08141 0.83581,-0.08141 0.656707,0 1.112603,0.222521 0.455896,0.22252 0.683844,0.624143 0.233375,0.401623 0.233375,0.944356 z m -2.263198,0.694699 q 0.461324,0 0.868374,-0.227948 0.40705,-0.227948 0.694698,-0.634998 v -1.6282 h -0.944356 q -0.966065,0 -1.394824,0.336495 -0.423332,0.336494 -0.423332,0.960638 0,0.597006 0.293076,0.89551 0.298503,0.298503 0.906364,0.298503 z"
           style="font-style:normal;font-variant:normal;font-weight:300;font-stretch:normal;font-size:10.5833px;line-height:1.25;font-family:'Fira Code';-inkscape-font-specification:'Fira Code, Light';font-variant-ligatures:normal;font-variant-caps:normal;font-variant-numeric:normal;font-variant-east-asian:normal;fill:#000000;fill-opacity:1;stroke:none;stroke-width:0.264583"
           id="path944" />
      </g>
      <rect
         style="fill:#ffffff;stroke-width:5.29167"
         id="rect862"
         width="5.6650128"
         height="7.7894955"
         x="41.012638"
         y="31.705442" />
      <path
         d="m 47.371859,35.513428 -3.051828,3.051826 -3.051827,-3.051826 a 2.1579687,2.1579687 0 0 1 3.051827,-3.05183 2.157969,2.157969 0 0 1 3.051828,3.05183 z"
         id="path836"
         style="stroke-width:0.0215797" />
    </g>
  </g>
</svg>
